<svg width="47" height="43" viewBox="0 0 47 43" fill="none" xmlns="http://www.w3.org/2000/svg">
<path d="M41.4514 20.0177H9.4885L24.6541 6.14264C25.2977 5.5656 25.3081 4.6204 24.6774 4.03152C24.0465 3.44264 23.0134 3.43298 22.3697 4.0102C22.362 4.01712 22.3542 4.02423 22.3464 4.03152L4.39533 20.4553C3.75786 21.0378 3.75686 21.9823 4.39353 22.5655C4.39393 22.5661 4.39433 22.5664 4.39533 22.5664L22.3464 38.9902C22.9901 39.5672 24.0232 39.5578 24.6539 38.9689C25.2758 38.3884 25.2758 37.4594 24.6539 36.8789L9.4885 23.0038H41.4514C42.3526 23.0038 43.0833 22.3353 43.0833 21.5108C43.0833 20.6862 42.3526 20.0177 41.4514 20.0177Z" fill="#82868C"/>
</svg>
