<svg width="23" height="22" viewBox="0 0 23 22" fill="none" xmlns="http://www.w3.org/2000/svg">
<g clip-path="url(#clip0_27_28)">
<path d="M17.5936 1.83333H16.6769V0.916667C16.6769 0.673552 16.5803 0.440394 16.4084 0.268485C16.2365 0.0965771 16.0034 0 15.7603 0C15.5171 0 15.284 0.0965771 15.1121 0.268485C14.9402 0.440394 14.8436 0.673552 14.8436 0.916667V1.83333H7.51022V0.916667C7.51022 0.673552 7.41364 0.440394 7.24173 0.268485C7.06982 0.0965771 6.83666 0 6.59355 0C6.35043 0 6.11728 0.0965771 5.94537 0.268485C5.77346 0.440394 5.67688 0.673552 5.67688 0.916667V1.83333H4.76022C3.54509 1.83479 2.38014 2.31814 1.52092 3.17737C0.661688 4.03659 0.178335 5.20154 0.17688 6.41667V17.4167C0.178335 18.6318 0.661688 19.7967 1.52092 20.656C2.38014 21.5152 3.54509 21.9985 4.76022 22H17.5936C18.8087 21.9985 19.9737 21.5152 20.8329 20.656C21.6921 19.7967 22.1755 18.6318 22.1769 17.4167V6.41667C22.1755 5.20154 21.6921 4.03659 20.8329 3.17737C19.9737 2.31814 18.8087 1.83479 17.5936 1.83333ZM2.01022 6.41667C2.01022 5.68732 2.29995 4.98785 2.81567 4.47212C3.3314 3.9564 4.03087 3.66667 4.76022 3.66667H17.5936C18.3229 3.66667 19.0224 3.9564 19.5381 4.47212C20.0539 4.98785 20.3436 5.68732 20.3436 6.41667V7.33333H2.01022V6.41667ZM17.5936 20.1667H4.76022C4.03087 20.1667 3.3314 19.8769 2.81567 19.3612C2.29995 18.8455 2.01022 18.146 2.01022 17.4167V9.16667H20.3436V17.4167C20.3436 18.146 20.0539 18.8455 19.5381 19.3612C19.0224 19.8769 18.3229 20.1667 17.5936 20.1667Z" fill="black"/>
<path d="M11.1769 15.125C11.9363 15.125 12.5519 14.5094 12.5519 13.75C12.5519 12.9906 11.9363 12.375 11.1769 12.375C10.4175 12.375 9.80188 12.9906 9.80188 13.75C9.80188 14.5094 10.4175 15.125 11.1769 15.125Z" fill="black"/>
<path d="M6.59338 15.125C7.35277 15.125 7.96838 14.5094 7.96838 13.75C7.96838 12.9906 7.35277 12.375 6.59338 12.375C5.83398 12.375 5.21838 12.9906 5.21838 13.75C5.21838 14.5094 5.83398 15.125 6.59338 15.125Z" fill="black"/>
<path d="M15.7603 15.125C16.5197 15.125 17.1353 14.5094 17.1353 13.75C17.1353 12.9906 16.5197 12.375 15.7603 12.375C15.0009 12.375 14.3853 12.9906 14.3853 13.75C14.3853 14.5094 15.0009 15.125 15.7603 15.125Z" fill="black"/>
</g>
<defs>
<clipPath id="clip0_27_28">
<rect width="22" height="22" fill="white" transform="translate(0.186157)"/>
</clipPath>
</defs>
</svg>
