<svg width="17" height="20" viewBox="0 0 17 20" fill="none" xmlns="http://www.w3.org/2000/svg">
<mask id="mask0_57_686" style="mask-type:luminance" maskUnits="userSpaceOnUse" x="0" y="0" width="17" height="20">
<path d="M16.873 0H0.873047V20H16.873V0Z" fill="white"/>
</mask>
<g mask="url(#mask0_57_686)">
<path d="M16.3866 7.84907C15.3526 5.74407 13.0006 2.2124 8.87259 2.2124C4.74459 2.2124 2.39259 5.74407 1.35859 7.84907C1.03894 8.49533 0.869629 9.2401 0.869629 9.9999C0.869629 10.7597 1.03894 11.5045 1.35859 12.1507C2.39259 14.2557 4.74459 17.7874 8.87259 17.7874C13.0006 17.7874 15.3526 14.2557 16.3866 12.1507C16.7063 11.5045 16.8755 10.7597 16.8755 9.9999C16.8755 9.2401 16.7063 8.49533 16.3866 7.84907ZM15.2499 11.2782C14.3619 13.0832 12.3519 16.1207 8.87259 16.1207C5.39326 16.1207 3.38326 13.0832 2.49526 11.2782C2.30535 10.8941 2.20476 10.4515 2.20476 9.9999C2.20476 9.54834 2.30535 9.1057 2.49526 8.72157C3.38326 6.91657 5.39326 3.87907 8.87259 3.87907C12.3519 3.87907 14.3619 6.91324 15.2499 8.72157C15.4399 9.1057 15.5404 9.54834 15.5404 9.9999C15.5404 10.4515 15.4399 10.8941 15.2499 11.2782Z" fill="black"/>
<path d="M8.8734 5.83325C8.21411 5.83325 7.56963 6.07762 7.02147 6.53546C6.47331 6.9933 6.04607 7.64405 5.79378 8.4054C5.54148 9.16676 5.47547 10.0045 5.60409 10.8128C5.73271 11.621 6.05018 12.3635 6.51635 12.9462C6.98253 13.5289 7.57647 13.9258 8.22307 14.0865C8.86967 14.2473 9.53988 14.1648 10.149 13.8494C10.758 13.5341 11.2787 13 11.6449 12.3148C12.0112 11.6296 12.2067 10.824 12.2067 9.99992C12.2056 8.89526 11.8541 7.83622 11.2292 7.0551C10.6044 6.27399 9.75708 5.83458 8.8734 5.83325ZM8.8734 12.4999C8.47781 12.4999 8.09113 12.3533 7.76223 12.0786C7.43334 11.8039 7.17699 11.4134 7.02562 10.9566C6.87424 10.4998 6.83463 9.99715 6.9118 9.51219C6.98897 9.02724 7.17946 8.58178 7.45916 8.23215C7.73887 7.88252 8.09523 7.64442 8.48319 7.54796C8.87115 7.45149 9.27332 7.501 9.63876 7.69022C10.0042 7.87944 10.3165 8.19987 10.5363 8.61099C10.756 9.02212 10.8734 9.50547 10.8734 9.99992C10.8734 10.663 10.6627 11.2988 10.2876 11.7677C9.91252 12.2365 9.4038 12.4999 8.8734 12.4999Z" fill="black"/>
</g>
</svg>
