<svg width="17" height="20" viewBox="0 0 17 20" fill="none" xmlns="http://www.w3.org/2000/svg">
<g clip-path="url(#clip0_57_638)">
<path d="M4.16454 13.1148C5.54107 13.1148 6.65696 11.72 6.65696 9.99932C6.65696 8.27866 5.54107 6.88379 4.16454 6.88379C2.78801 6.88379 1.67212 8.27866 1.67212 9.99932C1.67212 11.72 2.78801 13.1148 4.16454 13.1148Z" stroke="black" stroke-width="1.5" stroke-linecap="round" stroke-linejoin="round"/>
<path d="M13.5802 18.9996C14.9566 18.9996 16.0726 17.6047 16.0726 15.8841C16.0726 14.1634 14.9566 12.7686 13.5802 12.7686C12.2036 12.7686 11.0878 14.1634 11.0878 15.8841C11.0878 17.6047 12.2036 18.9996 13.5802 18.9996Z" stroke="black" stroke-width="1.5" stroke-linecap="round" stroke-linejoin="round"/>
<path d="M13.5802 7.23008C14.9566 7.23008 16.0726 5.83521 16.0726 4.11455C16.0726 2.39389 14.9566 0.999023 13.5802 0.999023C12.2036 0.999023 11.0878 2.39389 11.0878 4.11455C11.0878 5.83521 12.2036 7.23008 13.5802 7.23008Z" stroke="black" stroke-width="1.5" stroke-linecap="round" stroke-linejoin="round"/>
<path d="M6.39172 8.61455L11.3544 5.49902" stroke="black" stroke-width="1.5" stroke-linecap="round" stroke-linejoin="round"/>
<path d="M6.39172 11.3838L11.3544 14.4993" stroke="black" stroke-width="1.5" stroke-linecap="round" stroke-linejoin="round"/>
</g>
<defs>
<clipPath id="clip0_57_638">
<rect width="16" height="20" fill="white" transform="translate(0.872925)"/>
</clipPath>
</defs>
</svg>
