<svg width="21" height="21" viewBox="0 0 21 21" fill="none" xmlns="http://www.w3.org/2000/svg">
<mask id="path-1-outside-1_7_50" maskUnits="userSpaceOnUse" x="0" y="0" width="21" height="21" fill="black">
<rect fill="white" width="21" height="21"/>
<path d="M10.5 1C5.26161 1 1 5.26161 1 10.5C1 15.7384 5.26161 20 10.5 20C15.7384 20 20 15.7384 20 10.5C20 5.26161 15.7384 1 10.5 1ZM19.0905 8.50222L18.7502 8.85808C18.7118 8.89817 18.667 8.89784 18.6429 8.89436C18.619 8.89055 18.5756 8.8768 18.5517 8.8266L18.2572 8.21048C18.2181 8.12947 18.1664 8.05592 18.1028 7.99164L17.5982 7.48486C17.4491 7.33493 17.2423 7.24895 17.0306 7.24895H16.9034C16.4617 7.24895 16.1025 7.60812 16.1025 8.05111C16.1025 8.09021 16.0836 8.12732 16.0522 8.15018L15.7772 8.34948C15.5654 8.50289 15.2994 8.55043 15.0472 8.48069C14.7954 8.41078 14.592 8.23252 14.4896 7.99164L14.1563 7.20654C14.1271 7.13763 14.0883 7.07351 14.043 7.01768L13.0214 5.74685C12.9598 5.66998 12.8856 5.60604 12.8018 5.55733L11.4274 4.75235C11.2269 4.63539 10.9861 4.61054 10.7657 4.68526L9.5272 5.10572L8.2191 5.49885C8.04647 5.55037 7.89472 5.66021 7.79267 5.80732L7.69857 5.94168C7.66875 5.98458 7.62634 5.9927 7.60381 5.9937C7.58228 5.9922 7.53854 5.99038 7.50474 5.94996L7.11609 5.48394C7.08859 5.45114 7.0803 5.40574 7.09488 5.36516L7.58857 3.97521C7.60083 3.94026 7.62833 3.91309 7.66345 3.90083L9.77471 3.16328C9.93276 3.10794 10.0676 3.00639 10.164 2.86988L10.9965 1.69336C14.9526 1.91403 18.2188 4.75345 19.0905 8.50222ZM4.56993 3.97463L4.78217 4.32974C4.99721 4.68957 4.97932 5.14316 4.73711 5.4851L3.98697 6.54504L3.1265 7.848C3.11722 7.86176 3.10563 7.87335 3.09138 7.88263L2.77529 8.08855C2.41446 8.32363 2.30413 8.79794 2.52413 9.16854L2.657 9.39219C2.68815 9.44503 2.67125 9.49142 2.65833 9.51445C2.64573 9.53731 2.61492 9.57608 2.55329 9.57674L1.72579 9.58691C1.95466 7.37151 3.00654 5.39669 4.56993 3.97463ZM1.76807 11.7449L2.60896 11.4761C2.64938 11.4635 2.69411 11.4721 2.72658 11.5005L4.04496 12.6499C4.14005 12.7329 4.25502 12.7928 4.37762 12.8235L5.5449 13.1154C5.59262 13.1273 5.61548 13.1609 5.62476 13.18C5.63436 13.1989 5.64696 13.2373 5.62741 13.2824L5.47466 13.6339C5.38984 13.8289 5.38586 14.0451 5.4624 14.2426L5.68837 14.8247C5.71123 14.8834 5.68605 14.9491 5.63006 14.9778L5.10125 15.2475C4.85739 15.3719 4.69536 15.609 4.6682 15.8817L4.55565 17.0117C3.07875 15.6624 2.06236 13.8184 1.76807 11.7449ZM10.5 19.3214C8.50572 19.3214 6.66458 18.6554 5.18545 17.5353L5.34345 15.9489C5.34743 15.9072 5.37228 15.8711 5.40939 15.852L5.9382 15.5823C6.30532 15.3951 6.46999 14.9641 6.32122 14.5794L6.09492 13.9969C6.08332 13.9669 6.08398 13.9338 6.09691 13.9043L6.24965 13.5531C6.34375 13.3367 6.33779 13.0914 6.23342 12.8798C6.12905 12.6682 5.9382 12.5142 5.70925 12.457L4.54196 12.1651C4.5234 12.1605 4.50584 12.1514 4.49126 12.1386L3.17256 10.9889C2.96315 10.8062 2.66893 10.7457 2.40254 10.8297L1.69781 11.0549C1.68634 10.8712 1.67857 10.6865 1.67857 10.5C1.67857 10.4216 1.68244 10.3441 1.68449 10.2661L2.56158 10.2553C2.85116 10.2518 3.10861 10.0989 3.25042 9.84644C3.3919 9.5938 3.38825 9.29444 3.24015 9.04561L3.10761 8.82213C3.07382 8.76547 3.09072 8.69291 3.14572 8.65712L3.46214 8.45103C3.55491 8.3904 3.63278 8.31303 3.69275 8.22158L4.54693 6.92822L5.2911 5.8774C5.68837 5.31628 5.7172 4.57227 5.36466 3.98167L5.09719 3.53408C6.51099 2.43503 8.26582 1.75652 10.1745 1.68683L9.61004 2.47825C9.59546 2.49862 9.57425 2.51453 9.55073 2.52281L7.43947 3.26036C7.20919 3.34071 7.0306 3.51863 6.9491 3.74808L6.45541 5.13786C6.36098 5.40359 6.41466 5.70295 6.59523 5.91898L6.98389 6.38467C7.14491 6.57784 7.38281 6.68138 7.6333 6.6716C7.88445 6.66067 8.11142 6.53625 8.25488 6.33017L8.34931 6.19531C8.36455 6.17311 8.38742 6.15671 8.41392 6.14876L9.73396 5.75182L10.9837 5.32788C11.0162 5.31579 11.054 5.32026 11.0848 5.33799L12.4598 6.14329C12.4721 6.15042 12.483 6.16003 12.4926 6.17179L13.5317 7.47161L13.8654 8.25704C14.0489 8.6891 14.4134 9.00883 14.8657 9.13457C15.3183 9.25998 15.7954 9.174 16.1754 8.89883L16.4504 8.69937C16.6575 8.54927 16.7811 8.3069 16.7811 8.04962C16.7811 7.98236 16.8361 7.92752 16.9034 7.92752H17.0306C17.0631 7.92752 17.0945 7.94061 17.1171 7.96347L17.6214 8.46992C17.6313 8.47986 17.6392 8.49145 17.6452 8.50371L17.9398 9.1195C18.0534 9.35673 18.2764 9.52306 18.5362 9.56448C18.5779 9.57111 18.62 9.57442 18.6621 9.57442C18.8788 9.57442 19.0885 9.48628 19.2406 9.32708L19.241 9.3266C19.2924 9.71082 19.3214 10.102 19.3214 10.5C19.3214 15.3641 15.3643 19.3214 10.5 19.3214Z"/>
</mask>
<path d="M10.5 1C5.26161 1 1 5.26161 1 10.5C1 15.7384 5.26161 20 10.5 20C15.7384 20 20 15.7384 20 10.5C20 5.26161 15.7384 1 10.5 1ZM19.0905 8.50222L18.7502 8.85808C18.7118 8.89817 18.667 8.89784 18.6429 8.89436C18.619 8.89055 18.5756 8.8768 18.5517 8.8266L18.2572 8.21048C18.2181 8.12947 18.1664 8.05592 18.1028 7.99164L17.5982 7.48486C17.4491 7.33493 17.2423 7.24895 17.0306 7.24895H16.9034C16.4617 7.24895 16.1025 7.60812 16.1025 8.05111C16.1025 8.09021 16.0836 8.12732 16.0522 8.15018L15.7772 8.34948C15.5654 8.50289 15.2994 8.55043 15.0472 8.48069C14.7954 8.41078 14.592 8.23252 14.4896 7.99164L14.1563 7.20654C14.1271 7.13763 14.0883 7.07351 14.043 7.01768L13.0214 5.74685C12.9598 5.66998 12.8856 5.60604 12.8018 5.55733L11.4274 4.75235C11.2269 4.63539 10.9861 4.61054 10.7657 4.68526L9.5272 5.10572L8.2191 5.49885C8.04647 5.55037 7.89472 5.66021 7.79267 5.80732L7.69857 5.94168C7.66875 5.98458 7.62634 5.9927 7.60381 5.9937C7.58228 5.9922 7.53854 5.99038 7.50474 5.94996L7.11609 5.48394C7.08859 5.45114 7.0803 5.40574 7.09488 5.36516L7.58857 3.97521C7.60083 3.94026 7.62833 3.91309 7.66345 3.90083L9.77471 3.16328C9.93276 3.10794 10.0676 3.00639 10.164 2.86988L10.9965 1.69336C14.9526 1.91403 18.2188 4.75345 19.0905 8.50222ZM4.56993 3.97463L4.78217 4.32974C4.99721 4.68957 4.97932 5.14316 4.73711 5.4851L3.98697 6.54504L3.1265 7.848C3.11722 7.86176 3.10563 7.87335 3.09138 7.88263L2.77529 8.08855C2.41446 8.32363 2.30413 8.79794 2.52413 9.16854L2.657 9.39219C2.68815 9.44503 2.67125 9.49142 2.65833 9.51445C2.64573 9.53731 2.61492 9.57608 2.55329 9.57674L1.72579 9.58691C1.95466 7.37151 3.00654 5.39669 4.56993 3.97463ZM1.76807 11.7449L2.60896 11.4761C2.64938 11.4635 2.69411 11.4721 2.72658 11.5005L4.04496 12.6499C4.14005 12.7329 4.25502 12.7928 4.37762 12.8235L5.5449 13.1154C5.59262 13.1273 5.61548 13.1609 5.62476 13.18C5.63436 13.1989 5.64696 13.2373 5.62741 13.2824L5.47466 13.6339C5.38984 13.8289 5.38586 14.0451 5.4624 14.2426L5.68837 14.8247C5.71123 14.8834 5.68605 14.9491 5.63006 14.9778L5.10125 15.2475C4.85739 15.3719 4.69536 15.609 4.6682 15.8817L4.55565 17.0117C3.07875 15.6624 2.06236 13.8184 1.76807 11.7449ZM10.5 19.3214C8.50572 19.3214 6.66458 18.6554 5.18545 17.5353L5.34345 15.9489C5.34743 15.9072 5.37228 15.8711 5.40939 15.852L5.9382 15.5823C6.30532 15.3951 6.46999 14.9641 6.32122 14.5794L6.09492 13.9969C6.08332 13.9669 6.08398 13.9338 6.09691 13.9043L6.24965 13.5531C6.34375 13.3367 6.33779 13.0914 6.23342 12.8798C6.12905 12.6682 5.9382 12.5142 5.70925 12.457L4.54196 12.1651C4.5234 12.1605 4.50584 12.1514 4.49126 12.1386L3.17256 10.9889C2.96315 10.8062 2.66893 10.7457 2.40254 10.8297L1.69781 11.0549C1.68634 10.8712 1.67857 10.6865 1.67857 10.5C1.67857 10.4216 1.68244 10.3441 1.68449 10.2661L2.56158 10.2553C2.85116 10.2518 3.10861 10.0989 3.25042 9.84644C3.3919 9.5938 3.38825 9.29444 3.24015 9.04561L3.10761 8.82213C3.07382 8.76547 3.09072 8.69291 3.14572 8.65712L3.46214 8.45103C3.55491 8.3904 3.63278 8.31303 3.69275 8.22158L4.54693 6.92822L5.2911 5.8774C5.68837 5.31628 5.7172 4.57227 5.36466 3.98167L5.09719 3.53408C6.51099 2.43503 8.26582 1.75652 10.1745 1.68683L9.61004 2.47825C9.59546 2.49862 9.57425 2.51453 9.55073 2.52281L7.43947 3.26036C7.20919 3.34071 7.0306 3.51863 6.9491 3.74808L6.45541 5.13786C6.36098 5.40359 6.41466 5.70295 6.59523 5.91898L6.98389 6.38467C7.14491 6.57784 7.38281 6.68138 7.6333 6.6716C7.88445 6.66067 8.11142 6.53625 8.25488 6.33017L8.34931 6.19531C8.36455 6.17311 8.38742 6.15671 8.41392 6.14876L9.73396 5.75182L10.9837 5.32788C11.0162 5.31579 11.054 5.32026 11.0848 5.33799L12.4598 6.14329C12.4721 6.15042 12.483 6.16003 12.4926 6.17179L13.5317 7.47161L13.8654 8.25704C14.0489 8.6891 14.4134 9.00883 14.8657 9.13457C15.3183 9.25998 15.7954 9.174 16.1754 8.89883L16.4504 8.69937C16.6575 8.54927 16.7811 8.3069 16.7811 8.04962C16.7811 7.98236 16.8361 7.92752 16.9034 7.92752H17.0306C17.0631 7.92752 17.0945 7.94061 17.1171 7.96347L17.6214 8.46992C17.6313 8.47986 17.6392 8.49145 17.6452 8.50371L17.9398 9.1195C18.0534 9.35673 18.2764 9.52306 18.5362 9.56448C18.5779 9.57111 18.62 9.57442 18.6621 9.57442C18.8788 9.57442 19.0885 9.48628 19.2406 9.32708L19.241 9.3266C19.2924 9.71082 19.3214 10.102 19.3214 10.5C19.3214 15.3641 15.3643 19.3214 10.5 19.3214Z" fill="#82868C"/>
<path d="M10.5 1C5.26161 1 1 5.26161 1 10.5C1 15.7384 5.26161 20 10.5 20C15.7384 20 20 15.7384 20 10.5C20 5.26161 15.7384 1 10.5 1ZM19.0905 8.50222L18.7502 8.85808C18.7118 8.89817 18.667 8.89784 18.6429 8.89436C18.619 8.89055 18.5756 8.8768 18.5517 8.8266L18.2572 8.21048C18.2181 8.12947 18.1664 8.05592 18.1028 7.99164L17.5982 7.48486C17.4491 7.33493 17.2423 7.24895 17.0306 7.24895H16.9034C16.4617 7.24895 16.1025 7.60812 16.1025 8.05111C16.1025 8.09021 16.0836 8.12732 16.0522 8.15018L15.7772 8.34948C15.5654 8.50289 15.2994 8.55043 15.0472 8.48069C14.7954 8.41078 14.592 8.23252 14.4896 7.99164L14.1563 7.20654C14.1271 7.13763 14.0883 7.07351 14.043 7.01768L13.0214 5.74685C12.9598 5.66998 12.8856 5.60604 12.8018 5.55733L11.4274 4.75235C11.2269 4.63539 10.9861 4.61054 10.7657 4.68526L9.5272 5.10572L8.2191 5.49885C8.04647 5.55037 7.89472 5.66021 7.79267 5.80732L7.69857 5.94168C7.66875 5.98458 7.62634 5.9927 7.60381 5.9937C7.58228 5.9922 7.53854 5.99038 7.50474 5.94996L7.11609 5.48394C7.08859 5.45114 7.0803 5.40574 7.09488 5.36516L7.58857 3.97521C7.60083 3.94026 7.62833 3.91309 7.66345 3.90083L9.77471 3.16328C9.93276 3.10794 10.0676 3.00639 10.164 2.86988L10.9965 1.69336C14.9526 1.91403 18.2188 4.75345 19.0905 8.50222ZM4.56993 3.97463L4.78217 4.32974C4.99721 4.68957 4.97932 5.14316 4.73711 5.4851L3.98697 6.54504L3.1265 7.848C3.11722 7.86176 3.10563 7.87335 3.09138 7.88263L2.77529 8.08855C2.41446 8.32363 2.30413 8.79794 2.52413 9.16854L2.657 9.39219C2.68815 9.44503 2.67125 9.49142 2.65833 9.51445C2.64573 9.53731 2.61492 9.57608 2.55329 9.57674L1.72579 9.58691C1.95466 7.37151 3.00654 5.39669 4.56993 3.97463ZM1.76807 11.7449L2.60896 11.4761C2.64938 11.4635 2.69411 11.4721 2.72658 11.5005L4.04496 12.6499C4.14005 12.7329 4.25502 12.7928 4.37762 12.8235L5.5449 13.1154C5.59262 13.1273 5.61548 13.1609 5.62476 13.18C5.63436 13.1989 5.64696 13.2373 5.62741 13.2824L5.47466 13.6339C5.38984 13.8289 5.38586 14.0451 5.4624 14.2426L5.68837 14.8247C5.71123 14.8834 5.68605 14.9491 5.63006 14.9778L5.10125 15.2475C4.85739 15.3719 4.69536 15.609 4.6682 15.8817L4.55565 17.0117C3.07875 15.6624 2.06236 13.8184 1.76807 11.7449ZM10.5 19.3214C8.50572 19.3214 6.66458 18.6554 5.18545 17.5353L5.34345 15.9489C5.34743 15.9072 5.37228 15.8711 5.40939 15.852L5.9382 15.5823C6.30532 15.3951 6.46999 14.9641 6.32122 14.5794L6.09492 13.9969C6.08332 13.9669 6.08398 13.9338 6.09691 13.9043L6.24965 13.5531C6.34375 13.3367 6.33779 13.0914 6.23342 12.8798C6.12905 12.6682 5.9382 12.5142 5.70925 12.457L4.54196 12.1651C4.5234 12.1605 4.50584 12.1514 4.49126 12.1386L3.17256 10.9889C2.96315 10.8062 2.66893 10.7457 2.40254 10.8297L1.69781 11.0549C1.68634 10.8712 1.67857 10.6865 1.67857 10.5C1.67857 10.4216 1.68244 10.3441 1.68449 10.2661L2.56158 10.2553C2.85116 10.2518 3.10861 10.0989 3.25042 9.84644C3.3919 9.5938 3.38825 9.29444 3.24015 9.04561L3.10761 8.82213C3.07382 8.76547 3.09072 8.69291 3.14572 8.65712L3.46214 8.45103C3.55491 8.3904 3.63278 8.31303 3.69275 8.22158L4.54693 6.92822L5.2911 5.8774C5.68837 5.31628 5.7172 4.57227 5.36466 3.98167L5.09719 3.53408C6.51099 2.43503 8.26582 1.75652 10.1745 1.68683L9.61004 2.47825C9.59546 2.49862 9.57425 2.51453 9.55073 2.52281L7.43947 3.26036C7.20919 3.34071 7.0306 3.51863 6.9491 3.74808L6.45541 5.13786C6.36098 5.40359 6.41466 5.70295 6.59523 5.91898L6.98389 6.38467C7.14491 6.57784 7.38281 6.68138 7.6333 6.6716C7.88445 6.66067 8.11142 6.53625 8.25488 6.33017L8.34931 6.19531C8.36455 6.17311 8.38742 6.15671 8.41392 6.14876L9.73396 5.75182L10.9837 5.32788C11.0162 5.31579 11.054 5.32026 11.0848 5.33799L12.4598 6.14329C12.4721 6.15042 12.483 6.16003 12.4926 6.17179L13.5317 7.47161L13.8654 8.25704C14.0489 8.6891 14.4134 9.00883 14.8657 9.13457C15.3183 9.25998 15.7954 9.174 16.1754 8.89883L16.4504 8.69937C16.6575 8.54927 16.7811 8.3069 16.7811 8.04962C16.7811 7.98236 16.8361 7.92752 16.9034 7.92752H17.0306C17.0631 7.92752 17.0945 7.94061 17.1171 7.96347L17.6214 8.46992C17.6313 8.47986 17.6392 8.49145 17.6452 8.50371L17.9398 9.1195C18.0534 9.35673 18.2764 9.52306 18.5362 9.56448C18.5779 9.57111 18.62 9.57442 18.6621 9.57442C18.8788 9.57442 19.0885 9.48628 19.2406 9.32708L19.241 9.3266C19.2924 9.71082 19.3214 10.102 19.3214 10.5C19.3214 15.3641 15.3643 19.3214 10.5 19.3214Z" stroke="#82868C" stroke-width="0.3" mask="url(#path-1-outside-1_7_50)"/>
<path d="M12.563 8.03022L13.8398 10.1284C13.8552 10.1539 13.8793 10.1727 13.9078 10.1818L13.9305 10.1103C13.9305 10.1103 13.9305 10.1103 13.9305 10.1103C13.919 10.1066 13.9098 10.0993 13.904 10.0896L13.9038 10.0894L12.6271 7.99123L12.6271 7.99119C12.5244 7.82273 12.3655 7.69229 12.179 7.62336C12.179 7.62336 12.1789 7.62336 12.1789 7.62335L11.3787 7.32742L12.563 8.03022ZM12.563 8.03022C12.4692 7.8763 12.3238 7.75682 12.1529 7.69371M12.563 8.03022L12.1529 7.69371M12.1529 7.69371L11.3526 7.39773C11.1244 7.31303 10.8722 7.33363 10.6608 7.45426M12.1529 7.69371L10.6608 7.45426M10.6608 7.45426L10.3877 7.61032C10.3425 7.63652 10.2855 7.63125 10.2453 7.5973L9.82087 7.23821L10.6608 7.45426ZM10.6236 7.38914L10.6236 7.38912C10.8543 7.2575 11.1297 7.235 11.3786 7.32739L10.6236 7.38914ZM10.6236 7.38914L10.3505 7.5452L10.3501 7.54542M10.6236 7.38914L10.3501 7.54542M10.3501 7.54542C10.3327 7.55555 10.3101 7.55379 10.2937 7.54L9.86931 7.18095L9.86926 7.18091M10.3501 7.54542L9.86926 7.18091M9.86926 7.18091C9.69129 7.03063 9.45669 6.9535 9.22206 6.97362C9.22197 6.97363 9.22188 6.97364 9.22179 6.97364L7.94725 7.07429L9.86926 7.18091ZM8.57085 11.7399L8.57069 11.7398L7.67621 11.2609C7.6762 11.2609 7.6762 11.2609 7.67619 11.2609C6.63421 10.7035 6.23462 9.40933 6.78745 8.37507C6.78745 8.37506 6.78745 8.37505 6.78746 8.37505L7.235 7.53714L7.23503 7.53708L7.30119 7.57242L8.57085 11.7399ZM8.57085 11.7399C8.58039 11.745 8.58792 11.7531 8.59226 11.7627M8.57085 11.7399L8.59226 11.7627M8.59226 11.7627C8.59228 11.7627 8.59229 11.7628 8.59231 11.7628L8.98971 12.6554C8.98974 12.6554 8.98976 12.6555 8.98979 12.6556C9.03385 12.7558 9.09625 12.846 9.17528 12.9235L8.59226 11.7627ZM13.2431 14.9144L13.2772 14.9812L13.2772 14.9812L12.7328 15.2593L12.7327 15.2594C12.7176 15.2671 12.7082 15.2821 12.7072 15.297L12.7072 15.2972L12.6596 16.0201C12.6596 16.0201 12.6596 16.0201 12.6596 16.0201C12.6405 16.3129 12.4745 16.5747 12.2166 16.7203L12.2165 16.7203L11.9412 16.8754C11.7331 16.9925 11.4993 17.0523 11.2645 17.0523C11.12 17.0523 10.9748 17.0298 10.8348 16.984L10.8573 16.9151L10.8347 16.984C10.4677 16.8637 10.1686 16.594 10.0145 16.2438L10.0145 16.2438L9.38138 14.8021C9.29953 14.6165 9.28592 14.4067 9.34394 14.2118C9.34394 14.2118 9.34395 14.2117 9.34395 14.2117L9.59311 13.368C9.59312 13.3679 9.59313 13.3679 9.59313 13.3679C9.59762 13.3524 9.59336 13.335 9.5808 13.3227L9.58065 13.3225L9.17535 12.9236L14.6405 11.5479M13.2431 14.9144C13.5125 14.7768 13.6796 14.506 13.6796 14.2076V12.772C13.6796 12.7445 13.689 12.7177 13.7068 12.6962L14.6405 11.5479M13.2431 14.9144L12.6987 15.1926L13.2431 14.9144ZM14.6405 11.5479L14.6986 11.5953L14.6987 11.5953L14.6405 11.5479ZM14.0466 11.0787L14.0468 11.0785C14.0545 11.0691 14.0566 11.0613 14.0572 11.0553C14.0579 11.0485 14.0567 11.0419 14.0552 11.0373C14.0537 11.0324 14.0509 11.026 14.0463 11.0204C14.0422 11.0155 14.0358 11.0099 14.0239 11.0061L14.0466 11.0787ZM14.0466 11.0787L13.1129 12.2268L14.0466 11.0787ZM9.35775 11.431C9.27951 11.2547 9.14176 11.1073 8.96989 11.015L8.96981 11.015L8.07464 10.5357L8.07463 10.5357C7.43247 10.1921 7.18748 9.39495 7.52681 8.75984L7.52681 8.75984L7.97418 7.92226C7.97421 7.92221 7.97424 7.92215 7.97427 7.9221C7.98224 7.90752 7.99645 7.8981 8.01376 7.89667C8.01378 7.89667 8.0138 7.89667 8.01383 7.89667L9.28814 7.79593L9.6872 12.3556C9.69357 12.3698 9.70194 12.382 9.713 12.3928L10.1187 12.792C10.3274 12.9975 10.4058 13.2982 10.3241 13.5769L10.0745 14.4221M9.35775 11.431L9.2892 11.4614L9.35772 11.4309L9.35775 11.431ZM9.35775 11.431L9.75562 12.3249L9.68727 12.3556L9.75572 12.3251L9.75566 12.325C9.75833 12.3309 9.76142 12.3353 9.7656 12.3394L10.1713 12.7385L10.1713 12.7385C10.3996 12.9633 10.4856 13.2926 10.396 13.598L10.396 13.5981L10.1464 14.4433L10.0745 14.4221M10.0745 14.4221L10.1464 14.4434L10.1464 14.4434M10.0745 14.4221C10.0664 14.4495 10.0685 14.478 10.0795 14.5035L10.713 15.9458L10.1464 14.4434M10.1464 14.4434C10.1434 14.4536 10.1441 14.464 10.1483 14.4736M10.1464 14.4434L10.1483 14.4736M10.1483 14.4736C10.1483 14.4737 10.1483 14.4737 10.1483 14.4738L10.7817 15.9157L10.7817 15.9157C10.8417 16.0524 10.9536 16.1535 11.0982 16.2009L11.0984 16.2009C11.2427 16.2486 11.3947 16.2333 11.5265 16.159L11.5633 16.2243L11.5265 16.159L11.8014 16.0041C11.8155 15.9962 11.8242 15.9821 11.8252 15.9669L11.8727 15.2443L11.8727 15.2442L11.9476 15.2491L10.1483 14.4736ZM14.2788 10.2204L14.2788 10.2204L14.8556 10.7988C14.7715 10.5238 14.5555 10.3079 14.2788 10.2204ZM13.6751 10.8958L14.0238 11.0061L10.7321 8.19402L10.7693 8.25916L10.7694 8.2591L11.0424 8.10326L11.0427 8.10303C11.055 8.09592 11.0703 8.09438 11.0852 8.0998C11.0852 8.09981 11.0853 8.09983 11.0853 8.09984L11.8854 8.39587L11.8855 8.39593C11.8963 8.3999 11.9044 8.4067 11.9098 8.41567L11.91 8.41594L13.1867 10.5135C13.2967 10.6952 13.4701 10.8307 13.675 10.8958L13.6751 10.8958Z" fill="#82868C" stroke="#82868C" stroke-width="0.15"/>
</svg>
