<svg width="41" height="40" viewBox="0 0 41 40" fill="none" xmlns="http://www.w3.org/2000/svg">
<g clip-path="url(#clip0_16_221)">
<path d="M20.4 40C31.4457 40 40.4 31.0457 40.4 20C40.4 8.9543 31.4457 0 20.4 0C9.35433 0 0.400024 8.9543 0.400024 20C0.400024 31.0457 9.35433 40 20.4 40Z" fill="white" fill-opacity="0.1"/>
<path d="M24.15 13.6246C24.15 13.5251 24.1105 13.4297 24.0402 13.3594C23.9698 13.2891 23.8745 13.2496 23.775 13.2496H21.9C20.9558 13.2025 20.0314 13.5311 19.3288 14.1635C18.6261 14.7959 18.2023 15.6807 18.15 16.6246V18.6496H16.275C16.1755 18.6496 16.0802 18.6891 16.0098 18.7594C15.9395 18.8297 15.9 18.9251 15.9 19.0246V20.9746C15.9 21.074 15.9395 21.1694 16.0098 21.2397C16.0802 21.31 16.1755 21.3496 16.275 21.3496H18.15V26.3746C18.15 26.474 18.1895 26.5694 18.2598 26.6397C18.3302 26.71 18.4255 26.7496 18.525 26.7496H20.775C20.8745 26.7496 20.9698 26.71 21.0402 26.6397C21.1105 26.5694 21.15 26.474 21.15 26.3746V21.3496H23.115C23.1984 21.3507 23.2798 21.3241 23.3464 21.2739C23.4129 21.2236 23.4608 21.1526 23.4825 21.0721L24.0225 19.1221C24.0374 19.0666 24.0394 19.0085 24.0284 18.9522C24.0173 18.8959 23.9935 18.8429 23.9587 18.7973C23.9239 18.7516 23.8791 18.7146 23.8278 18.689C23.7764 18.6634 23.7199 18.6499 23.6625 18.6496H21.15V16.6246C21.1687 16.4389 21.2558 16.2669 21.3945 16.1421C21.5332 16.0173 21.7134 15.9486 21.9 15.9496H23.775C23.8745 15.9496 23.9698 15.91 24.0402 15.8397C24.1105 15.7694 24.15 15.674 24.15 15.5746V13.6246Z" fill="white"/>
</g>
<defs>
<clipPath id="clip0_16_221">
<rect width="40" height="40" fill="white" transform="translate(0.400024)"/>
</clipPath>
</defs>
</svg>
