<svg width="21" height="20" viewBox="0 0 21 20" fill="none" xmlns="http://www.w3.org/2000/svg">
<path d="M16.4329 16.7197C16.4329 17.5915 15.3952 18.0421 14.7546 17.4508L11.1112 14.0877C10.7281 13.7341 10.1377 13.7341 9.75462 14.0877L6.11117 17.4508C5.4706 18.0421 4.43289 17.5888 4.43289 16.7171C4.43287 14.109 4.43284 10.6329 4.433 2.43808C4.43301 1.8735 4.89844 1.41971 5.46295 1.42853C8.32993 1.47337 13.1444 1.42677 15.4358 1.41059C15.9882 1.40669 16.4329 1.85051 16.4329 2.40292C16.4329 5.66942 16.4329 12.6255 16.4329 16.7197Z" stroke="black" stroke-width="1.5" stroke-linecap="round" stroke-linejoin="round"/>
<path d="M16.4329 16.7197C16.4329 17.5915 15.3952 18.0421 14.7546 17.4508L11.1112 14.0877C10.7281 13.7341 10.1377 13.7341 9.75462 14.0877L6.11117 17.4508C5.4706 18.0421 4.43289 17.5888 4.43289 16.7171C4.43287 14.109 4.43284 10.6329 4.433 2.43808C4.43301 1.8735 4.89844 1.41971 5.46295 1.42853C8.32994 1.47337 13.1444 1.42677 15.4358 1.41059C15.9882 1.40669 16.4329 1.85051 16.4329 2.40292C16.4329 5.66942 16.4329 12.6255 16.4329 16.7197Z" fill="#F4BB29" stroke="#F4BB29" stroke-linecap="round" stroke-linejoin="round"/>
</svg>
