<svg width="30" height="30" viewBox="0 0 30 30" fill="none" xmlns="http://www.w3.org/2000/svg">
<path d="M15 2.80859C12.0318 2.80872 9.16058 3.86499 6.89996 5.7884C4.63934 7.71182 3.13688 10.3769 2.66142 13.3067C2.18596 16.2365 2.76853 19.2399 4.30488 21.7795C5.84123 24.3191 8.23111 26.2292 11.0469 27.168C11.6719 27.2774 11.9063 26.9024 11.9063 26.5742C11.9063 26.2773 11.8906 25.293 11.8906 24.2461C8.75 24.8242 7.9375 23.4805 7.6875 22.7774C7.4101 22.0935 6.97035 21.4875 6.40625 21.0117C5.96875 20.7773 5.34375 20.1992 6.39062 20.1836C6.79035 20.227 7.17374 20.3661 7.50829 20.5891C7.84285 20.8121 8.11871 21.1125 8.3125 21.4648C8.48347 21.772 8.71335 22.0423 8.98899 22.2605C9.26463 22.4786 9.5806 22.6402 9.91879 22.736C10.257 22.8318 10.6108 22.8599 10.9599 22.8187C11.3089 22.7776 11.6465 22.6679 11.9531 22.4961C12.0072 21.8606 12.2904 21.2665 12.75 20.8243C9.96875 20.5118 7.0625 19.4336 7.0625 14.6524C7.04494 13.4101 7.50336 12.2081 8.34375 11.293C7.96161 10.2133 8.00632 9.02836 8.46875 7.98051C8.46875 7.98051 9.51559 7.65237 11.9063 9.26176C13.9516 8.69922 16.1109 8.69922 18.1563 9.26176C20.5469 7.63676 21.5938 7.98051 21.5938 7.98051C22.0562 9.02835 22.101 10.2133 21.7188 11.293C22.5617 12.2065 23.0205 13.4095 23 14.6524C23 19.4492 20.0781 20.5118 17.2969 20.8243C17.5952 21.1266 17.8249 21.4896 17.9705 21.8886C18.1161 22.2877 18.1741 22.7133 18.1406 23.1368C18.1406 24.8087 18.125 26.1524 18.125 26.5743C18.125 26.9024 18.3594 27.293 18.9844 27.168C21.7952 26.2216 24.1782 24.3071 25.708 21.7662C27.2378 19.2253 27.8149 16.2234 27.3361 13.2964C26.8573 10.3694 25.354 7.70781 23.0943 5.78673C20.8347 3.86566 17.9659 2.81014 15 2.80859Z" fill="#82868C"/>
</svg>
