<svg width="30" height="30" viewBox="0 0 30 30" fill="none" xmlns="http://www.w3.org/2000/svg">
<path d="M28.0001 15.2891C28.0001 14.2202 27.9116 13.4402 27.7201 12.6313H15.2654V17.4557H22.576C22.4287 18.6547 21.6328 20.4602 19.864 21.6735L19.8393 21.835L23.7772 24.8246L24.05 24.8513C26.5556 22.5835 28.0001 19.2468 28.0001 15.2891Z" fill="#4285F4"/>
<path d="M15.2654 28.0002C18.847 28.0002 21.8537 26.8446 24.0499 24.8513L19.864 21.6734C18.7438 22.439 17.2404 22.9734 15.2654 22.9734C11.7575 22.9734 8.78014 20.7057 7.71882 17.5713L7.56325 17.5842L3.46853 20.6898L3.41498 20.8357C5.59636 25.0823 10.0771 28.0002 15.2654 28.0002Z" fill="#34A853"/>
<path d="M7.71883 17.571C7.43879 16.7622 7.27672 15.8954 7.27672 14.9999C7.27672 14.1043 7.43879 13.2377 7.7041 12.4288L7.69668 12.2565L3.55064 9.10107L3.41499 9.16431C2.51594 10.9265 2.00006 12.9055 2.00006 14.9999C2.00006 17.0944 2.51594 19.0732 3.41499 20.8354L7.71883 17.571Z" fill="#FBBC05"/>
<path d="M15.2654 7.02663C17.7563 7.02663 19.4365 8.08106 20.3946 8.96223L24.1384 5.38C21.8391 3.28556 18.847 2 15.2654 2C10.0771 2 5.59639 4.91775 3.41501 9.16438L7.70411 12.4289C8.78017 9.29443 11.7575 7.02663 15.2654 7.02663Z" fill="#EB4335"/>
</svg>
