<svg width="24" height="24" viewBox="0 0 24 24" fill="none" xmlns="http://www.w3.org/2000/svg">
<path fill-rule="evenodd" clip-rule="evenodd" d="M9.5996 14.4001C6.9488 14.4001 4.7996 12.2509 4.7996 9.60009C4.7996 6.94929 6.9488 4.80009 9.5996 4.80009C12.2504 4.80009 14.3996 6.94929 14.3996 9.60009C14.3996 12.2509 12.2504 14.4001 9.5996 14.4001ZM21.248 19.5517L15.464 13.7677C16.3016 12.5905 16.7996 11.1553 16.7996 9.60009C16.7996 5.62449 13.5752 2.40009 9.5996 2.40009C5.624 2.40009 2.3996 5.62449 2.3996 9.60009C2.3996 13.5757 5.624 16.8001 9.5996 16.8001C11.1548 16.8001 12.59 16.3021 13.7672 15.4645L19.5512 21.2485C19.7852 21.4825 20.0924 21.6001 20.3996 21.6001C20.7068 21.6001 21.014 21.4825 21.248 21.2485C21.7172 20.7793 21.7172 20.0209 21.248 19.5517Z" fill="black"/>
</svg>
