<svg width="41" height="40" viewBox="0 0 41 40" fill="none" xmlns="http://www.w3.org/2000/svg">
<g clip-path="url(#clip0_16_224)">
<path d="M20.4 40C31.4457 40 40.4 31.0457 40.4 20C40.4 8.9543 31.4457 0 20.4 0C9.35433 0 0.400024 8.9543 0.400024 20C0.400024 31.0457 9.35433 40 20.4 40Z" fill="white" fill-opacity="0.1"/>
<path d="M20.4 13.2364C22.6028 13.2364 22.864 13.2446 23.7337 13.2845C24.6728 13.3271 25.5439 13.5155 26.2142 14.1858C26.8845 14.8561 27.0729 15.7272 27.1155 16.6663C27.1554 17.536 27.1636 17.7972 27.1636 20C27.1636 22.2028 27.1554 22.464 27.1155 23.3337C27.0729 24.2728 26.8845 25.1439 26.2142 25.8142C25.5439 26.4845 24.6728 26.6729 23.7337 26.7155C22.864 26.7554 22.6028 26.7636 20.4 26.7636C18.1972 26.7636 17.936 26.7554 17.0663 26.7155C16.1272 26.6729 15.2561 26.4845 14.5858 25.8142C13.9155 25.1439 13.7271 24.2728 13.6845 23.3337C13.6446 22.464 13.6364 22.2028 13.6364 20C13.6364 17.7972 13.6446 17.536 13.6845 16.6663C13.7271 15.7272 13.9155 14.8561 14.5858 14.1858C15.2561 13.5155 16.1272 13.3271 17.0663 13.2845C17.936 13.2446 18.1972 13.2364 20.4 13.2364ZM20.4 11.75C18.1594 11.75 17.8783 11.7596 16.9982 11.7995C15.6576 11.8607 14.4799 12.1893 13.5346 13.1346C12.5893 14.0799 12.2607 15.2576 12.1995 16.5982C12.1596 17.4783 12.15 17.7594 12.15 20C12.15 22.2406 12.1596 22.5218 12.1995 23.4017C12.2607 24.7424 12.5893 25.9201 13.5346 26.8654C14.4799 27.8107 15.6576 28.1393 16.9982 28.2005C17.8783 28.2404 18.1594 28.25 20.4 28.25C22.6406 28.25 22.9218 28.2404 23.8017 28.2005C25.1424 28.1393 26.3201 27.8107 27.2654 26.8654C28.2107 25.9201 28.5393 24.7424 28.6005 23.4017C28.6404 22.5218 28.65 22.2406 28.65 20C28.65 17.7594 28.6404 17.4783 28.6005 16.5982C28.5393 15.2576 28.2107 14.0799 27.2654 13.1346C26.3201 12.1893 25.1424 11.8607 23.8017 11.7995C22.9218 11.7596 22.6406 11.75 20.4 11.75Z" fill="white"/>
<path d="M20.4 15.7637C19.8437 15.7637 19.2928 15.8732 18.7789 16.0861C18.2649 16.299 17.7979 16.6111 17.4045 17.0045C17.0111 17.3979 16.699 17.8649 16.4861 18.3789C16.2732 18.8928 16.1637 19.4437 16.1637 20C16.1637 20.5564 16.2732 21.1073 16.4861 21.6212C16.699 22.1352 17.0111 22.6022 17.4045 22.9956C17.7979 23.389 18.2649 23.701 18.7789 23.9139C19.2928 24.1268 19.8437 24.2364 20.4 24.2364C21.5236 24.2364 22.6011 23.7901 23.3956 22.9956C24.1901 22.2011 24.6364 21.1236 24.6364 20C24.6364 18.8765 24.1901 17.799 23.3956 17.0045C22.6011 16.21 21.5236 15.7637 20.4 15.7637ZM20.4 22.75C19.6707 22.75 18.9712 22.4603 18.4555 21.9446C17.9398 21.4289 17.65 20.7294 17.65 20C17.65 19.2707 17.9398 18.5712 18.4555 18.0555C18.9712 17.5398 19.6707 17.25 20.4 17.25C21.1294 17.25 21.8289 17.5398 22.3446 18.0555C22.8603 18.5712 23.15 19.2707 23.15 20C23.15 20.7294 22.8603 21.4289 22.3446 21.9446C21.8289 22.4603 21.1294 22.75 20.4 22.75Z" fill="white"/>
<path d="M24.8041 16.5855C25.3508 16.5855 25.7941 16.1422 25.7941 15.5955C25.7941 15.0487 25.3508 14.6055 24.8041 14.6055C24.2573 14.6055 23.8141 15.0487 23.8141 15.5955C23.8141 16.1422 24.2573 16.5855 24.8041 16.5855Z" fill="white"/>
</g>
<defs>
<clipPath id="clip0_16_224">
<rect width="40" height="40" fill="white" transform="translate(0.400024)"/>
</clipPath>
</defs>
</svg>
