<svg width="20" height="21" viewBox="0 0 20 21" fill="none" xmlns="http://www.w3.org/2000/svg">
<path d="M15.2354 4.95748C15.2354 7.61731 12.9686 9.77352 10.1724 9.77352C7.37614 9.77352 5.10935 7.61731 5.10935 4.95748C5.10935 2.29766 7.37614 0.141449 10.1724 0.141449C12.9686 0.141449 15.2354 2.29766 15.2354 4.95748Z" fill="#010101"/>
<path d="M1.20347 15.5158C2.86563 14.2723 6.17356 12.2597 10.1724 12.2597C14.1712 12.2597 17.4791 14.2723 19.1412 15.5158C19.8832 16.0708 20.1146 17.0091 19.8216 17.8626L19.4218 19.0272C19.0818 20.0177 18.1107 20.6878 17.0154 20.6878H3.32934C2.23399 20.6878 1.26288 20.0177 0.922878 19.0272L0.523093 17.8626C0.230109 17.0091 0.461548 16.0708 1.20347 15.5158Z" fill="#010101"/>
</svg>
