<svg width="45" height="46" viewBox="0 0 45 46" fill="none" xmlns="http://www.w3.org/2000/svg">
<path d="M39.75 35.3188C33.3516 35.3188 32.5078 29.2094 31.6641 23.3156C30.75 16.9188 29.9062 10.9531 22.875 10.9531C15.8438 10.9531 15 16.9906 14.0859 23.3156C13.2422 29.2094 12.3984 35.3188 6 35.3188V33.45C10.5 33.45 11.3437 29.5688 12.2578 23.1C13.1016 16.8469 14.2266 9.08438 22.875 9.08438C31.5234 9.08438 32.6484 16.8469 33.4922 23.1C34.4063 29.5688 35.25 33.45 39.75 33.45V35.3188Z" fill="black"/>
<path d="M22.875 39.3438C20.2031 39.3438 17.9531 37.1156 17.9531 34.3125H19.7813C19.7813 36.0375 21.1172 37.4031 22.8047 37.4031C24.4922 37.4031 25.8281 36.0375 25.8281 34.3125H27.6562C27.7969 37.1156 25.5469 39.3438 22.875 39.3438Z" fill="black"/>
<path d="M6 33.3781H39.75V35.3906H6V33.3781Z" fill="black"/>
<path d="M24.8438 9.01249C24.8438 10.1625 23.9298 10.5219 22.8751 10.5219C21.8204 10.5219 20.9063 10.0906 20.9063 9.01249C20.9063 7.93437 21.8204 7 22.8751 7C23.9298 7 24.8438 7.86249 24.8438 9.01249Z" fill="black"/>
</svg>
