<svg width="23" height="22" viewBox="0 0 23 22" fill="none" xmlns="http://www.w3.org/2000/svg">
<path d="M19.353 2.75H3.01965C2.46737 2.75 2.01965 3.19772 2.01965 3.75V8.16667C2.01965 8.71895 2.46737 9.16667 3.01965 9.16667H19.353C19.9052 9.16667 20.353 8.71895 20.353 8.16667V3.75C20.353 3.19772 19.9052 2.75 19.353 2.75Z" stroke="black" stroke-width="1.9" stroke-linecap="round" stroke-linejoin="round"/>
<path d="M19.353 12.833H3.01965C2.46737 12.833 2.01965 13.2807 2.01965 13.833V18.2497C2.01965 18.802 2.46737 19.2497 3.01965 19.2497H19.353C19.9052 19.2497 20.353 18.802 20.353 18.2497V13.833C20.353 13.2807 19.9052 12.833 19.353 12.833Z" stroke="black" stroke-width="1.9" stroke-linecap="round" stroke-linejoin="round"/>
</svg>
