<svg width="41" height="40" viewBox="0 0 41 40" fill="none" xmlns="http://www.w3.org/2000/svg">
<g clip-path="url(#clip0_16_214)">
<path d="M20.4 40C31.4457 40 40.4 31.0457 40.4 20C40.4 8.9543 31.4457 0 20.4 0C9.35433 0 0.400024 8.9543 0.400024 20C0.400024 31.0457 9.35433 40 20.4 40Z" fill="white" fill-opacity="0.1"/>
<mask id="mask0_16_214" style="mask-type:luminance" maskUnits="userSpaceOnUse" x="11" y="11" width="19" height="18">
<path d="M29.4 11H11.4V29H29.4V11Z" fill="white"/>
</mask>
<g mask="url(#mask0_16_214)">
<path d="M29.3649 12.8955C29.3503 12.829 29.3184 12.7676 29.2725 12.7174C29.2265 12.6672 29.1681 12.6301 29.1032 12.6097C28.8667 12.5629 28.6219 12.5802 28.3944 12.66C28.3944 12.66 12.6227 18.3292 11.7219 18.957C11.5284 19.092 11.4632 19.1707 11.4309 19.263C11.2749 19.713 11.7602 19.9065 11.7602 19.9065L15.8252 21.231C15.8939 21.2433 15.9646 21.2392 16.0314 21.219C16.9554 20.6347 25.3314 15.3435 25.8182 15.1657C25.8932 15.1432 25.9509 15.1657 25.9359 15.222C25.7424 15.9007 18.5042 22.3305 18.4644 22.3695C18.445 22.3853 18.43 22.4058 18.4205 22.429C18.4111 22.4522 18.4076 22.4773 18.4104 22.5022L18.0309 26.4712C18.0309 26.4712 17.8719 27.7065 19.1072 26.4712C19.7918 25.7897 20.5047 25.1371 21.2439 24.5152C22.6419 25.4805 24.1457 26.5477 24.7944 27.1065C24.9035 27.2121 25.0328 27.2946 25.1746 27.3491C25.3163 27.4036 25.4676 27.429 25.6194 27.4237C25.8063 27.4009 25.9819 27.3218 26.1227 27.1968C26.2635 27.0718 26.3629 26.9068 26.4077 26.724C26.4077 26.724 29.2802 15.1567 29.3762 13.6072C29.3859 13.4572 29.3987 13.3582 29.4002 13.254C29.4048 13.1334 29.393 13.0128 29.3649 12.8955Z" fill="white"/>
</g>
</g>
<defs>
<clipPath id="clip0_16_214">
<rect width="40" height="40" fill="white" transform="translate(0.400024)"/>
</clipPath>
</defs>
</svg>
