<svg width="41" height="40" viewBox="0 0 41 40" fill="none" xmlns="http://www.w3.org/2000/svg">
<g clip-path="url(#clip0_16_229)">
<path d="M20.4 40C31.4457 40 40.4 31.0457 40.4 20C40.4 8.9543 31.4457 0 20.4 0C9.35433 0 0.400024 8.9543 0.400024 20C0.400024 31.0457 9.35433 40 20.4 40Z" fill="white" fill-opacity="0.1"/>
<path d="M27.775 17C27.775 17 27.65 15.9375 27.15 15.5C26.5875 14.875 25.9625 14.875 25.65 14.875C23.525 14.75 20.4 14.75 20.4 14.75C20.4 14.75 17.275 14.75 15.15 14.875C14.8375 14.9375 14.2125 14.9375 13.65 15.5C13.2125 15.9375 13.025 17 13.025 17C13.025 17 12.9 18.1875 12.9 19.4375V20.5625C12.9 21.75 13.025 23 13.025 23C13.025 23 13.15 24.0625 13.65 24.5C14.2125 25.125 14.9625 25.0625 15.275 25.125C16.4625 25.25 20.4 25.25 20.4 25.25C20.4 25.25 23.525 25.25 25.65 25.0625C25.9625 25 26.5875 25 27.15 24.4375C27.5875 24 27.775 22.9375 27.775 22.9375C27.775 22.9375 27.9 21.75 27.9 20.5V19.375C27.9 18.1875 27.775 17 27.775 17ZM18.8375 21.9375V17.75L22.9 19.875L18.8375 21.9375Z" fill="white"/>
</g>
<defs>
<clipPath id="clip0_16_229">
<rect width="40" height="40" fill="white" transform="translate(0.400024)"/>
</clipPath>
</defs>
</svg>
